<?xml version="1.0" ?><svg xmlns="http://www.w3.org/2000/svg" id="Sunshine" viewBox="0 0 64 64"><defs><style>
      .cls-1 {
        stroke-width: 0px;
      }
    </style></defs><path class="cls-1" d="M59.83,29.63c-3.45-2.81-4.97-7.41-3.87-11.7.22-.86.05-1.77-.47-2.49-.53-.73-1.34-1.18-2.24-1.24l-.4-.03c-4.43-.29-8.23-3.01-9.92-7.09l-.1-.23c-.33-.81-1-1.43-1.84-1.7-.84-.27-1.76-.17-2.51.29l-.42.26c-3.74,2.27-8.38,2.27-12.11,0l-.43-.26c-.75-.46-1.67-.56-2.51-.29-.84.27-1.51.89-1.84,1.7l-.1.24c-1.69,4.07-5.49,6.78-9.92,7.08l-.4.03c-.9.06-1.71.51-2.24,1.24-.52.72-.69,1.63-.47,2.49,1.1,4.29-.42,8.89-3.94,11.75-.7.57-1.1,1.42-1.1,2.32s.4,1.75,1.17,2.37c3.45,2.81,4.97,7.41,3.87,11.7-.22.86-.05,1.77.47,2.49.53.73,1.34,1.18,2.24,1.24l.39.03c4.44.29,8.24,3.01,9.93,7.08l.1.24c.33.81,1,1.43,1.84,1.7.84.27,1.76.17,2.51-.29l.42-.26c3.74-2.27,8.38-2.27,12.11,0l.43.26c.48.29,1.02.44,1.57.44.32,0,.63-.05.94-.15.84-.27,1.51-.89,1.84-1.7l.1-.24c1.69-4.07,5.49-6.78,9.92-7.08l.4-.03c.9-.06,1.71-.51,2.24-1.24.52-.72.69-1.63.47-2.49-1.1-4.29.42-8.89,3.87-11.7l.07-.05c.7-.57,1.1-1.42,1.1-2.32s-.4-1.75-1.17-2.37ZM58.63,32.77l-.06.05c-4.06,3.3-5.84,8.7-4.55,13.75.1.39-.05.68-.15.82-.18.24-.45.4-.76.42l-.39.02c-5.2.35-9.65,3.54-11.64,8.32l-.09.23c-.12.27-.34.48-.62.57-.29.09-.6.06-.85-.1l-.43-.26c-2.18-1.33-4.64-1.99-7.09-1.99s-4.91.66-7.1,1.99l-.42.26c-.25.16-.56.19-.85.1-.28-.09-.5-.3-.62-.57l-.09-.23c-1.98-4.78-6.44-7.97-11.64-8.32l-.39-.02c-.31-.02-.58-.18-.76-.42-.1-.14-.25-.43-.15-.82,1.29-5.05-.49-10.45-4.61-13.8-.32-.26-.37-.6-.37-.77s.05-.51.43-.82c4.06-3.3,5.84-8.7,4.55-13.75-.1-.39.05-.68.15-.82.18-.24.45-.4.76-.42l.39-.02c5.2-.35,9.66-3.54,11.64-8.32l.09-.23c.12-.27.34-.48.62-.57.29-.09.6-.06.85.1l.42.26c4.38,2.66,9.82,2.66,14.2,0l.42-.26c.25-.16.56-.19.85-.1.28.09.5.3.62.57l.09.23c1.99,4.78,6.45,7.97,11.64,8.32l.39.02c.31.02.58.18.76.42.1.14.25.43.15.82-1.29,5.05.49,10.45,4.61,13.8.32.26.37.6.37.77s-.05.51-.37.77Z"/><path class="cls-1" d="M32,15c-9.37,0-17,7.63-17,17s7.63,17,17,17,17-7.63,17-17-7.63-17-17-17ZM22.17,27.55c-.31-.45-.18-1.08.28-1.38.45-.31,1.06-.19,1.37.26.03.04.43.57,1.18.57s1.16-.55,1.18-.57c.32-.44.94-.55,1.38-.24.45.31.57.91.27,1.36-.36.54-1.35,1.45-2.83,1.45s-2.47-.91-2.83-1.45ZM32,40c-2.41,0-4.44-1.72-4.9-4h9.8c-.47,2.28-2.48,4-4.9,4ZM41.83,27.55c-.36.54-1.36,1.45-2.83,1.45s-2.47-.91-2.83-1.45c-.31-.45-.18-1.08.28-1.38.45-.31,1.06-.19,1.37.26.03.05.44.57,1.18.57s1.16-.55,1.17-.55c.3-.46.93-.59,1.38-.28.46.3.59.93.28,1.38Z"/></svg>